<svg width="24" height="11" viewBox="0 0 24 11" fill="none" xmlns="http://www.w3.org/2000/svg">
<path fill-rule="evenodd" clip-rule="evenodd" d="M0.271484 1.20981C1.64094 1.71962 3.85534 2.78526 6.01527 4.31572C8.17875 5.84869 10.2559 7.82573 11.3933 10.1478L11.7147 9.99041L12.0361 10.1478C13.1735 7.82573 15.2507 5.84869 17.4142 4.31572C19.5741 2.78526 21.7885 1.71962 23.158 1.20981L22.9083 0.539062C21.4839 1.06933 19.2138 2.16338 17.0004 3.73174C14.9739 5.16763 12.9683 7.0198 11.7147 9.22543C10.4611 7.0198 8.45553 5.16763 6.42907 3.73174C4.21564 2.16338 1.94558 1.06933 0.521188 0.539062L0.271484 1.20981Z" fill="#1F1F1F"/>
</svg>
