<svg width="21" height="9" viewBox="0 0 21 9" fill="none" xmlns="http://www.w3.org/2000/svg">
<path fill-rule="evenodd" clip-rule="evenodd" d="M0 8.37175C1.25658 7.89423 3.28845 6.89611 5.27034 5.46261C7.25549 4.02677 9.16145 2.17498 10.2051 3.65237e-07L10.5 0.147444L10.7949 3.65237e-07C11.8385 2.17498 13.7445 4.02677 15.7297 5.46261C17.7116 6.89611 19.7434 7.89423 21 8.37175L20.7709 9C19.4639 8.50333 17.381 7.47859 15.35 6.00959C13.4905 4.66468 11.6503 2.92985 10.5 0.863961C9.34975 2.92985 7.50946 4.66468 5.65003 6.00959C3.61905 7.47859 1.5361 8.50333 0.229122 9L0 8.37175Z" fill="#1F1F1F"/>
</svg>
