<svg width="76" height="68" viewBox="0 0 76 68" fill="none" xmlns="http://www.w3.org/2000/svg">
<path d="M33.7309 39.4449C34.2905 39.4449 34.7446 38.9912 34.7446 38.4312V35.7182H38.0673V38.4312C38.0673 38.9912 38.5214 39.4449 39.081 39.4449C39.6405 39.4449 40.0946 38.9912 40.0946 38.4312V32.7192C40.0946 30.6853 38.4402 29.0306 36.4063 29.0306C34.3724 29.0306 32.7173 30.6854 32.7173 32.7192V38.4312C32.7173 38.9912 33.1714 39.4449 33.7309 39.4449ZM36.4063 31.0578C37.3223 31.0578 38.0673 31.8032 38.0673 32.7192V33.691H34.7446V32.7192C34.7446 31.8032 35.4903 31.0578 36.4063 31.0578ZM41.2555 38.4312V30.0441C41.2555 29.4841 41.7096 29.0304 42.2692 29.0304C42.8288 29.0304 43.2829 29.4841 43.2829 30.0441V38.4312C43.2829 38.9912 42.8288 39.4449 42.2692 39.4449C41.7096 39.4449 41.2555 38.9912 41.2555 38.4312ZM72.4002 34.898C72.1692 34.667 71.9258 34.4466 71.6716 34.2378C71.9256 34.0289 72.1685 33.8089 72.3995 33.5779C76.5333 29.4438 76.5333 22.7171 72.3995 18.5836C70.7636 16.9474 68.7481 15.8859 66.6298 15.5262C66.6654 15.2104 66.6832 14.8927 66.6832 14.5742C66.6832 9.9263 62.9019 6.14525 58.254 6.14525C58.1293 6.14525 58.0052 6.14789 57.8812 6.15345C56.5996 2.98442 53.5488 0.90332 50.0722 0.90332C45.4243 0.90332 41.643 4.68466 41.643 9.3323V23.2836H39.0137V20.2241C39.0137 19.6641 38.5596 19.2105 38.0001 19.2105C37.4405 19.2105 36.9864 19.6641 36.9864 20.2241V23.2836H34.3579L34.3571 9.3323C34.3571 4.68481 30.5758 0.90332 25.9285 0.90332C22.4512 0.90332 19.4004 2.98442 18.1188 6.15345C17.9947 6.14789 17.8707 6.14525 17.746 6.14525C13.0988 6.14525 9.31731 9.9263 9.31731 14.5742C9.31731 14.893 9.33518 15.2107 9.37078 15.5262C7.25247 15.8859 5.23627 16.9474 3.60033 18.5836C-0.533445 22.7174 -0.533445 29.4441 3.60033 33.5776C3.83061 33.8089 4.07421 34.0291 4.32821 34.2378C4.07421 34.4467 3.83061 34.6667 3.60033 34.8977C-0.533445 39.0315 -0.533445 45.7582 3.60033 49.892C5.23627 51.5282 7.25233 52.5898 9.37078 52.9494C9.33518 53.2648 9.31731 53.5826 9.31731 53.9014C9.31731 58.5493 13.0987 62.3304 17.746 62.3304C17.8707 62.3304 17.9947 62.3277 18.1188 62.3222C19.4004 65.4912 22.4512 67.5719 25.9285 67.5719C30.5757 67.5719 34.3571 63.7908 34.3571 59.1432L34.3579 45.1919H36.9864V48.2514C36.9864 48.8114 37.4405 49.265 38.0001 49.265C38.5596 49.265 39.0137 48.8114 39.0137 48.2514V45.1919H41.6428V59.1432C41.6428 63.7907 45.4242 67.5719 50.0721 67.5719C53.5486 67.5719 56.5994 65.4911 57.881 62.3222C58.0051 62.3277 58.1292 62.3304 58.2538 62.3304C62.9018 62.3304 66.6831 58.5493 66.6831 53.9014C66.6831 53.5829 66.6652 53.2652 66.6296 52.9494C68.7479 52.5898 70.7634 51.5282 72.3993 49.892C76.5334 45.7585 76.5334 39.0318 72.4002 34.898ZM46.9269 43.1645H29.0732V25.3108H46.9269V43.1645ZM32.33 59.1432C32.33 62.6729 29.4586 65.5445 25.9286 65.5445C23.442 65.5445 21.2424 64.1441 20.1813 61.9719C21.3527 61.6189 22.4416 61.0117 23.3688 60.1812C23.3921 60.1602 23.4018 60.1314 23.4227 60.1089C23.8374 60.314 24.2978 60.4398 24.7909 60.4398C26.5066 60.4398 27.9031 59.0437 27.9031 57.3279C27.9031 55.6122 26.5066 54.216 24.7909 54.216C23.0751 54.216 21.6792 55.6122 21.6792 57.3279C21.6792 57.8154 21.8019 58.271 22.0024 58.6822C20.8301 59.7272 19.3194 60.303 17.746 60.303C14.216 60.303 11.3447 57.4314 11.3447 53.9014C11.3447 53.613 11.3671 53.3263 11.405 53.042C13.0932 52.9093 14.7053 52.3758 16.141 51.4803C16.6673 51.888 17.3193 52.1408 18.035 52.1408C19.7508 52.1408 21.1466 50.7447 21.1466 49.0289C21.1466 47.3131 19.7509 45.917 18.035 45.917C16.3191 45.917 14.9228 47.3131 14.9228 49.0289C14.9228 49.2921 14.9656 49.5436 15.0274 49.788C13.6934 50.6092 12.1717 51.0425 10.5869 51.0473C8.57039 50.9417 6.59901 50.0235 5.03383 48.4588C1.69062 45.1153 1.69062 39.6747 5.03456 36.3309C5.49847 35.866 6.02772 35.4542 6.60589 35.107C6.91146 34.9239 7.09823 34.5939 7.09823 34.238C7.09823 33.8819 6.91146 33.552 6.60589 33.3689C6.02845 33.0221 5.49921 32.6102 5.03397 32.1447C1.69077 28.8012 1.69077 23.3606 5.03397 20.0171C6.59916 18.4523 8.57054 17.5341 10.587 17.4286C12.172 17.4335 13.6945 17.8668 15.0281 18.6881C14.966 18.933 14.923 19.1851 14.923 19.4489C14.923 21.1647 16.3194 22.5608 18.0352 22.5608C19.7509 22.5608 21.1468 21.1647 21.1468 19.4489C21.1468 17.7327 19.7511 16.3367 18.0352 16.3367C17.32 16.3367 16.6685 16.589 16.1423 16.9962C14.7068 16.1005 13.0943 15.5667 11.4053 15.4338C11.3674 15.1496 11.3449 14.8628 11.3449 14.5744C11.3449 11.0444 14.2163 8.17274 17.7463 8.17274C19.3197 8.17274 20.8305 8.74856 22.0028 9.79329C21.802 10.2045 21.6794 10.6602 21.6794 11.1477C21.6794 12.8634 23.0751 14.2596 24.791 14.2596C26.5069 14.2596 27.9032 12.8634 27.9032 11.1477C27.9032 9.43191 26.5068 8.03577 24.791 8.03577C24.2979 8.03577 23.8377 8.1616 23.423 8.36653C23.402 8.34398 23.3924 8.31512 23.3689 8.29417C22.4417 7.46361 21.3529 6.85687 20.1814 6.50384C21.2426 4.33134 23.4422 2.93095 25.9288 2.93095C29.4587 2.93095 32.3301 5.80263 32.3301 9.3326L32.3308 23.2839H28.0598C27.5002 23.2839 27.0461 23.7375 27.0461 24.2976V26.7014H23.9867C23.4271 26.7014 22.973 27.155 22.973 27.715C22.973 28.275 23.4271 28.7287 23.9867 28.7287H27.0461V31.05H23.9867C23.4271 31.05 22.973 31.5037 22.973 32.0637C22.973 32.6237 23.4271 33.0774 23.9867 33.0774H27.0461V35.399H23.9867C23.4271 35.399 22.973 35.8526 22.973 36.4127C22.973 36.9727 23.4271 37.4263 23.9867 37.4263H27.0461V39.7477H23.9867C23.4271 39.7477 22.973 40.2013 22.973 40.7613C22.973 41.3213 23.4271 41.775 23.9867 41.775H27.0461V44.1788C27.0461 44.7388 27.5002 45.1925 28.0598 45.1925H32.3308L32.33 59.1432ZM23.7066 57.3279C23.7066 56.7297 24.1929 56.2434 24.7909 56.2434C25.3894 56.2434 25.8757 56.7297 25.8757 57.3279C25.8757 57.9262 25.3894 58.4125 24.7909 58.4125C24.1929 58.4125 23.7066 57.9262 23.7066 57.3279ZM16.9502 49.0287C16.9502 48.4305 17.4365 47.9442 18.035 47.9442C18.633 47.9442 19.1193 48.4305 19.1193 49.0287C19.1193 49.627 18.633 50.1133 18.035 50.1133C17.4366 50.1133 16.9502 49.627 16.9502 49.0287ZM18.0352 18.3638C18.6331 18.3638 19.1194 18.8505 19.1194 19.4486C19.1194 20.0467 18.6331 20.5332 18.0352 20.5332C17.4366 20.5332 16.9503 20.0469 16.9503 19.4486C16.9503 18.8504 17.4366 18.3638 18.0352 18.3638ZM23.7066 11.1474C23.7066 10.5491 24.1929 10.0628 24.7909 10.0628C25.3894 10.0628 25.8757 10.5491 25.8757 11.1474C25.8757 11.7456 25.3894 12.232 24.7909 12.232C24.1929 12.232 23.7066 11.7456 23.7066 11.1474ZM65.4131 51.0471C63.8602 51.0425 62.3674 50.6254 61.0527 49.8356C61.1227 49.5767 61.1721 49.3096 61.1721 49.0287C61.1721 47.313 59.7756 45.9168 58.0599 45.9168C56.3441 45.9168 54.9477 47.313 54.9477 49.0287C54.9477 50.7445 56.3441 52.1406 58.0599 52.1406C58.756 52.1406 59.3927 51.9028 59.9119 51.515C61.3341 52.3905 62.9277 52.911 64.5951 53.0421C64.6332 53.3267 64.6558 53.6135 64.6558 53.9014C64.6558 57.4314 61.7838 60.303 58.2538 60.303C56.9079 60.303 55.6095 59.8788 54.5279 59.1029C54.8801 58.5987 55.0901 57.9883 55.0901 57.3279C55.0901 55.6122 53.6936 54.216 51.9779 54.216C50.2621 54.216 48.8657 55.6122 48.8657 57.3279C48.8657 59.0437 50.2621 60.4398 51.9779 60.4398C52.2639 60.4398 52.536 60.3886 52.7993 60.3158C53.6901 61.0737 54.7154 61.6393 55.8187 61.9719C54.7575 64.1441 52.5587 65.5445 50.072 65.5445C46.542 65.5445 43.67 62.6729 43.67 59.1432V45.1919H47.9405C48.5 45.1919 48.9541 44.7382 48.9541 44.1782V41.7744H52.0136C52.5732 41.7744 53.0273 41.3208 53.0273 40.7607C53.0273 40.2007 52.5732 39.7471 52.0136 39.7471H48.9541V37.4257H52.0136C52.5732 37.4257 53.0273 36.9721 53.0273 36.4121C53.0273 35.8521 52.5732 35.3984 52.0136 35.3984H48.9541V33.0768H52.0136C52.5732 33.0768 53.0273 32.6231 53.0273 32.0631C53.0273 31.5031 52.5732 31.0494 52.0136 31.0494H48.9541V28.7283H52.0136C52.5732 28.7283 53.0273 28.2746 53.0273 27.7146C53.0273 27.1546 52.5732 26.7009 52.0136 26.7009H48.9541V24.2971C48.9541 23.7371 48.5 23.2834 47.9405 23.2834H43.67V9.3323C43.67 5.80233 46.542 2.93066 50.072 2.93066C52.5585 2.93066 54.7574 4.33105 55.8187 6.50355C54.7151 6.83622 53.69 7.4015 52.799 8.15955C52.5357 8.0869 52.2639 8.03563 51.9779 8.03563C50.2621 8.03563 48.8657 9.43177 48.8657 11.1475C48.8657 12.8633 50.2621 14.2594 51.9779 14.2594C53.6936 14.2594 55.0901 12.8633 55.0901 11.1475C55.0901 10.4872 54.88 9.87678 54.5277 9.37244C55.6093 8.59681 56.9078 8.17259 58.2538 8.17259C61.7838 8.17259 64.6558 11.0443 64.6558 14.5742C64.6558 14.8621 64.6332 15.149 64.5951 15.4337C62.9271 15.5648 61.3329 16.0857 59.9107 16.9613C59.3919 16.5742 58.7554 16.3366 58.0599 16.3366C56.3441 16.3366 54.9477 17.7327 54.9477 19.4488C54.9477 21.1646 56.3441 22.5607 58.0599 22.5607C59.7756 22.5607 61.1721 21.1646 61.1721 19.4488C61.1721 19.1674 61.1224 18.8996 61.0521 18.6402C62.3666 17.8502 63.8595 17.433 65.4131 17.4283C67.4296 17.5339 69.401 18.4521 70.9661 20.0168C74.3093 23.3601 74.3093 28.8005 70.9661 32.1447C70.5009 32.6099 69.9717 33.0217 69.3942 33.3686C69.0887 33.5517 68.9019 33.8817 68.9019 34.2377C68.9019 34.5938 69.0887 34.9236 69.3942 35.1068C69.9724 35.4539 70.5016 35.8657 70.9661 36.3309C74.3093 39.6749 74.3093 45.1153 70.9661 48.4585C69.401 50.0234 67.4296 50.9415 65.4131 51.0471ZM58.0599 50.1133C57.4613 50.1133 56.975 49.627 56.975 49.0287C56.975 48.4305 57.4613 47.9442 58.0599 47.9442C58.6584 47.9442 59.1447 48.4305 59.1447 49.0287C59.1449 49.627 58.6584 50.1133 58.0599 50.1133ZM51.978 58.4125C51.3795 58.4125 50.8931 57.9262 50.8931 57.3279C50.8931 56.7297 51.3795 56.2434 51.978 56.2434C52.5765 56.2434 53.0629 56.7297 53.0629 57.3279C53.0629 57.9262 52.5765 58.4125 51.978 58.4125ZM53.0629 11.1474C53.0629 11.7456 52.5765 12.232 51.978 12.232C51.3795 12.232 50.8931 11.7456 50.8931 11.1474C50.8931 10.5491 51.3795 10.0628 51.978 10.0628C52.5765 10.0628 53.0629 10.5491 53.0629 11.1474ZM59.1449 19.4486C59.1449 20.0469 58.6586 20.5332 58.06 20.5332C57.4615 20.5332 56.9752 20.0469 56.9752 19.4486C56.9752 18.8504 57.4615 18.3638 58.06 18.3638C58.6586 18.3638 59.1449 18.8504 59.1449 19.4486Z" fill="#5822C6"/>
</svg>
