<svg width="68" height="67" viewBox="0 0 68 67" fill="none" xmlns="http://www.w3.org/2000/svg">
<g clip-path="url(#clip0_7_3927)">
<path fill-rule="evenodd" clip-rule="evenodd" d="M0.5 62.9434V48.9961C0.5 48.7879 0.582722 48.5882 0.729967 48.4409C0.877212 48.2937 1.07692 48.2109 1.28516 48.2109C1.49339 48.2109 1.6931 48.2937 1.84035 48.4409C1.98759 48.5882 2.07031 48.7879 2.07031 48.9961V62.9434C2.07101 63.6026 2.33318 64.2346 2.79931 64.7007C3.26543 65.1668 3.89744 65.429 4.55664 65.4297H18.5047C18.7129 65.4297 18.9126 65.5124 19.0599 65.6597C19.2071 65.8069 19.2898 66.0066 19.2898 66.2148C19.2898 66.4231 19.2071 66.6228 19.0599 66.77C18.9126 66.9173 18.7129 67 18.5047 67H4.55729C3.48169 66.9989 2.45044 66.5712 1.68981 65.8107C0.929178 65.0501 0.501282 64.019 0.5 62.9434ZM0.5 18.0043V4.05664C0.501281 2.98115 0.929088 1.95007 1.68958 1.18958C2.45007 0.429088 3.48115 0.00128136 4.55664 0L18.5047 0C18.7129 0 18.9126 0.0827216 19.0599 0.229967C19.2071 0.377212 19.2898 0.57692 19.2898 0.785156C19.2898 0.993393 19.2071 1.1931 19.0599 1.34035C18.9126 1.48759 18.7129 1.57031 18.5047 1.57031H4.55729C3.89801 1.57094 3.2659 1.83307 2.79965 2.29919C2.33341 2.76531 2.07111 3.39736 2.07031 4.05664V18.0043C2.07031 18.2125 1.98759 18.4122 1.84035 18.5595C1.6931 18.7067 1.49339 18.7894 1.28516 18.7894C1.07692 18.7894 0.877212 18.7067 0.729967 18.5595C0.582722 18.4122 0.5 18.2125 0.5 18.0043ZM67.501 4.05664V18.0043C67.501 18.2125 67.4183 18.4122 67.2711 18.5595C67.1238 18.7067 66.9241 18.7894 66.7159 18.7894C66.5077 18.7894 66.3079 18.7067 66.1607 18.5595C66.0135 18.4122 65.9307 18.2125 65.9307 18.0043V4.05664C65.9299 3.39748 65.6677 2.76556 65.2016 2.29946C64.7355 1.83336 64.1036 1.57114 63.4444 1.57031H49.4962C49.288 1.57031 49.0883 1.48759 48.941 1.34035C48.7938 1.1931 48.7111 0.993393 48.7111 0.785156C48.7111 0.57692 48.7938 0.377212 48.941 0.229967C49.0883 0.0827216 49.288 0 49.4962 0L63.4434 0C64.519 0.00110815 65.5502 0.428834 66.3109 1.18934C67.0715 1.94984 67.4995 2.98102 67.5008 4.05664H67.501ZM67.501 48.996V62.9434C67.4997 64.019 67.0718 65.0502 66.3111 65.8108C65.5504 66.5713 64.519 66.999 63.4434 67H49.4962C49.288 67 49.0883 66.9173 48.941 66.77C48.7938 66.6228 48.7111 66.4231 48.7111 66.2148C48.7111 66.0066 48.7938 65.8069 48.941 65.6597C49.0883 65.5124 49.288 65.4297 49.4962 65.4297H63.4434C64.1026 65.429 64.7345 65.1668 65.2007 64.7007C65.6668 64.2345 65.929 63.6026 65.9297 62.9434V48.9961C65.9297 48.7879 66.0124 48.5882 66.1597 48.4409C66.3069 48.2937 66.5066 48.2109 66.7148 48.2109C66.9231 48.2109 67.1228 48.2937 67.27 48.4409C67.4173 48.5882 67.5 48.7879 67.5 48.9961L67.501 48.996ZM34.7862 58.709L56.225 46.3308V21.5757L34.7858 33.9533V58.7091L34.7862 58.709ZM11.7765 21.5757V46.3309L33.2148 58.7091V33.9533L11.7765 21.5757ZM10.2062 20.2157V46.7847C10.2063 46.9225 10.2426 47.0578 10.3115 47.1771C10.3804 47.2964 10.4795 47.3955 10.5988 47.4644L33.6074 60.749C33.7268 60.8177 33.8622 60.8539 34 60.8539C34.1378 60.8539 34.2732 60.8177 34.3926 60.749L57.4024 47.4644C57.5217 47.3955 57.6208 47.2964 57.6897 47.1771C57.7586 47.0578 57.7949 46.9225 57.7949 46.7847V20.2157C57.7949 20.0779 57.7586 19.9426 57.6897 19.8233C57.6208 19.704 57.5217 19.6049 57.4024 19.536L34.3932 6.25141C34.2738 6.18258 34.1385 6.14634 34.0007 6.14634C33.8628 6.14634 33.7275 6.18258 33.6081 6.25141L10.5988 19.536C10.4795 19.6049 10.3805 19.704 10.3116 19.8233C10.2427 19.9426 10.2064 20.0779 10.2064 20.2157H10.2062Z" fill="#5822C6"/>
</g>
<defs>
<clipPath id="clip0_7_3927">
<rect width="67" height="67" fill="white" transform="translate(0.5)"/>
</clipPath>
</defs>
</svg>
