<svg width="74" height="57" viewBox="0 0 74 57" fill="none" xmlns="http://www.w3.org/2000/svg">
<path d="M33.0621 47.5517C30.1171 47.5516 27.2382 46.679 24.7888 45.0439C22.3395 43.4087 20.4296 41.0845 19.3002 38.3646C18.1709 35.6448 17.8729 32.6513 18.4438 29.7621C19.0146 26.873 20.4288 24.2178 22.5077 22.1319C24.5866 20.0459 27.2369 18.6227 30.1241 18.042C33.0113 17.4614 36.0058 17.7492 38.7295 18.8693C41.4531 19.9893 43.7839 21.8914 45.4273 24.3351C47.0707 26.7789 47.9532 29.6549 47.9632 32.5999C47.9682 34.5605 47.5865 36.5029 46.8401 38.3159C46.0936 40.1288 44.997 41.7769 43.613 43.1656C42.229 44.5543 40.5847 45.6565 38.7743 46.4091C36.9638 47.1618 35.0228 47.55 33.0621 47.5517ZM33.0621 20.2859C30.6172 20.2859 28.2271 21.0107 26.194 22.3688C24.1609 23.7269 22.5761 25.6573 21.6398 27.9159C20.7036 30.1745 20.458 32.66 20.9341 35.0582C21.4101 37.4563 22.5865 39.6595 24.3145 41.3893C26.0424 43.119 28.2444 44.2976 30.6421 44.7762C33.0398 45.2547 35.5255 45.0116 37.7851 44.0777C40.0447 43.1438 41.9767 41.561 43.3368 39.5293C44.697 37.4976 45.4243 35.1082 45.4268 32.6633C45.4335 31.034 45.1188 29.4195 44.5007 27.9121C43.8826 26.4046 42.9733 25.0339 41.8248 23.8783C40.6763 22.7228 39.3112 21.805 37.8075 21.1777C36.3039 20.5504 34.6914 20.2258 33.0621 20.2225V20.2859Z" fill="#5822C6"/>
<path d="M30.3111 39.6888C30.103 39.6878 29.8983 39.6355 29.7151 39.5366C29.5126 39.4288 29.3431 39.2681 29.2248 39.0715C29.1064 38.875 29.0436 38.6501 29.043 38.4206V26.7534C29.0436 26.524 29.1064 26.299 29.2248 26.1025C29.3431 25.906 29.5126 25.7452 29.7151 25.6374C29.9145 25.5375 30.1367 25.4918 30.3594 25.5052C30.5821 25.5186 30.7973 25.5904 30.9833 25.7135L39.5688 31.5471C39.7392 31.6622 39.879 31.8171 39.9762 31.9982C40.0734 32.1794 40.1251 32.3814 40.1268 32.587C40.1271 32.7948 40.0764 32.9994 39.9791 33.1829C39.8818 33.3665 39.7409 33.5233 39.5688 33.6396L30.9833 39.4732C30.7842 39.6072 30.5511 39.682 30.3111 39.6888ZM31.5793 29.1503V36.0238L36.652 32.587L31.5793 29.1503Z" fill="#5822C6"/>
<path d="M60.3793 56.9992H5.74627C4.33803 56.9958 2.98843 56.4349 1.99265 55.4391C0.996872 54.4434 0.435966 53.0937 0.432617 51.6855V13.488C0.452576 12.0908 1.0208 10.7574 2.0148 9.77529C3.00879 8.79316 4.34892 8.24098 5.74627 8.23779H60.3793C61.7875 8.24114 63.1371 8.80205 64.1329 9.79783C65.1287 10.7936 65.6896 12.1432 65.693 13.5515V51.6855C65.6896 53.0937 65.1287 54.4434 64.1329 55.4391C63.1371 56.4349 61.7875 56.9958 60.3793 56.9992ZM5.74627 10.7741C5.02152 10.7772 4.32638 11.0621 3.80801 11.5686C3.28964 12.0752 2.98873 12.7635 2.96897 13.488V51.6855C2.96897 52.4221 3.26158 53.1285 3.78242 53.6494C4.30327 54.1702 5.00969 54.4628 5.74627 54.4628H60.3793C61.1159 54.4628 61.8223 54.1702 62.3432 53.6494C62.864 53.1285 63.1566 52.4221 63.1566 51.6855V13.488C63.1368 12.7635 62.8359 12.0752 62.3176 11.5686C61.7992 11.0621 61.1041 10.7772 60.3793 10.7741H5.74627Z" fill="#5822C6"/>
<path d="M72.9105 7.70604C72.7779 7.70928 72.6481 7.66726 72.5426 7.58691C72.4371 7.50656 72.362 7.39266 72.3299 7.26398C71.8049 5.25528 70.5063 3.53598 68.7177 2.48165C66.9292 1.42733 64.7961 1.12367 62.7844 1.63702C62.6347 1.67511 62.476 1.65234 62.3431 1.57369C62.2102 1.49504 62.1138 1.36691 62.0752 1.21738C62.0371 1.0677 62.0599 0.909019 62.1385 0.776092C62.2172 0.643165 62.3453 0.546823 62.4948 0.508165C63.6416 0.209273 64.8361 0.139316 66.01 0.302291C67.1838 0.465266 68.3141 0.857978 69.3361 1.45798C70.3581 2.05798 71.2518 2.85352 71.9662 3.7991C72.6806 4.74469 73.2017 5.8218 73.4996 6.96886C73.5377 7.11855 73.5149 7.27722 73.4363 7.41015C73.3576 7.54308 73.2295 7.63942 73.08 7.67808C73.0256 7.69754 72.9682 7.70702 72.9105 7.70604Z" fill="#5822C6"/>
<path d="M70.1032 8.43311C69.9714 8.43667 69.8422 8.39549 69.7368 8.31628C69.6314 8.23707 69.5559 8.12449 69.5226 7.99689C69.3604 7.36835 69.0758 6.77796 68.6853 6.25947C68.2947 5.74098 67.8058 5.30456 67.2464 4.97519C66.6871 4.64581 66.0683 4.42992 65.4254 4.33988C64.7826 4.24984 64.1283 4.28741 63.5 4.45043C63.4254 4.47017 63.3478 4.47495 63.2714 4.4645C63.195 4.45406 63.1215 4.42859 63.055 4.38958C62.9885 4.35056 62.9304 4.29876 62.8841 4.23717C62.8377 4.17559 62.804 4.10543 62.7849 4.03075C62.7468 3.88107 62.7696 3.72239 62.8482 3.58947C62.9269 3.45654 63.055 3.3602 63.2045 3.32154C63.9815 3.11974 64.7906 3.07296 65.5856 3.18387C66.3806 3.29477 67.146 3.56119 67.8381 3.96792C68.5302 4.37464 69.1353 4.9137 69.619 5.55431C70.1028 6.19493 70.4556 6.92455 70.6573 7.70152C70.6954 7.8512 70.6726 8.00988 70.594 8.1428C70.5153 8.27573 70.3872 8.37207 70.2377 8.41073C70.1941 8.42456 70.1489 8.4321 70.1032 8.43311Z" fill="#5822C6"/>
<path d="M67.2952 9.15997C67.1633 9.16353 67.0342 9.12235 66.9288 9.04314C66.8233 8.96393 66.7478 8.85135 66.7145 8.72375C66.5787 8.19961 66.2403 7.75083 65.7738 7.47598C65.3073 7.20113 64.7507 7.12269 64.2264 7.25789C64.1513 7.28031 64.0725 7.28739 63.9947 7.27871C63.9168 7.27003 63.8415 7.24576 63.7732 7.20735C63.7049 7.16895 63.645 7.11718 63.5972 7.05516C63.5493 6.99313 63.5144 6.9221 63.4946 6.8463C63.4747 6.7705 63.4704 6.69149 63.4817 6.61396C63.4931 6.53644 63.5199 6.46199 63.5606 6.39506C63.6013 6.32813 63.6551 6.27007 63.7188 6.22436C63.7824 6.17865 63.8546 6.14622 63.931 6.12899C64.7555 5.9155 65.6309 6.03766 66.3655 6.46871C67.1 6.89975 67.6336 7.60449 67.8492 8.42838C67.869 8.50289 67.8738 8.58057 67.8633 8.65695C67.8529 8.73332 67.8274 8.80686 67.7884 8.87334C67.7494 8.93982 67.6976 8.99791 67.636 9.04427C67.5744 9.09063 67.5042 9.12433 67.4296 9.14343L67.2952 9.15997Z" fill="#5822C6"/>
</svg>
