<svg width="65" height="44" viewBox="0 0 65 44" fill="none" xmlns="http://www.w3.org/2000/svg">
<path opacity="0.8" d="M13.39 21.5471C15.6195 21.5471 17.7905 22.5858 19.682 24.5634L19.8055 24.6899L22.8085 20.9679L22.7305 20.8613C20.2345 17.8451 17.2315 16.3736 13.559 16.3736C9.867 16.3736 6.4805 17.6386 4.043 19.9491C1.3975 22.4394 0 25.955 0 30.0899C0 34.2447 1.3975 37.7604 4.0365 40.2506C6.474 42.5544 9.841 43.8262 13.5525 43.8262C17.2445 43.8262 20.228 42.348 22.724 39.3384L22.802 39.2319L19.799 35.5098L19.6755 35.6363C17.81 37.5872 15.639 38.6259 13.3835 38.6259C8.7165 38.6259 5.33 35.0304 5.33 30.0832C5.33 25.136 8.723 21.5471 13.39 21.5471ZM25.805 16.7997H31.135V43.3002H25.805V16.7997ZM47.996 38.859C46.293 38.859 45.5 37.9268 45.5 35.8694V21.7935H50.895V16.7997H45.5V8.55658L40.3 11.4064V16.7997H35.815V21.7935H40.3V36.7616C40.3 40.8365 42.6595 43.6198 46.189 43.6997C48.581 43.7396 50.024 43.0138 50.9015 42.4945L50.9665 42.4545L52.247 37.3409L51.922 37.5273C50.492 38.3996 49.1725 38.859 47.996 38.859ZM56.29 16.7997H61.62V43.3002H56.29V16.7997ZM28.483 12.3319C32.643 7.92403 38.077 5.60025 43.6605 5.60025C49.244 5.60025 54.678 7.91737 58.838 12.3252L58.8965 12.3985H65L64.779 12.0522C59.93 5.01431 51.857 0.826172 43.6605 0.826172C35.464 0.826172 27.3845 5.01431 22.5615 12.0589L22.321 12.4051H28.4245L28.483 12.3319Z" fill="#E2E2E2"/>
</svg>
