<svg width="105" height="44" viewBox="0 0 105 44" fill="none" xmlns="http://www.w3.org/2000/svg">
<path opacity="0.8" d="M21.6085 20.2556C19.4451 20.2556 17.8329 21.3869 17.032 23.1721H16.98C17.1257 22.404 17.1465 21.2727 17.1465 20.5358H14.2758V40.7851H17.3129V34.6512C18.0513 34.7965 18.6442 34.8172 19.4451 34.8172C24.1568 34.8172 26.7986 31.8489 26.7986 26.8773C26.809 22.6324 24.968 20.2556 21.6085 20.2556ZM19.5387 32.4508C18.6858 32.4508 17.9785 32.3678 17.3233 32.1706V27.8322C17.3233 25.4243 18.5402 22.7569 20.818 22.7569C22.7214 22.7569 23.6055 24.3449 23.6055 27.1783C23.6055 30.977 21.9517 32.4508 19.5387 32.4508ZM3.6043 20.4528C3.6043 18.8648 4.82123 17.7646 7.21346 17.7646C8.34718 17.7646 9.5745 17.9618 10.677 18.3043L10.8434 15.5539C9.67851 15.3567 8.51359 15.2114 7.37988 15.2114C2.92824 15.2114 0.338379 17.5052 0.338379 20.7953C0.338379 26.9811 8.72161 25.279 8.72161 29.306C8.72161 31.3714 7.01584 32.2536 4.91484 32.2536C3.5211 32.2536 2.01295 31.9423 0.941639 31.5479L0.764821 34.4644C1.87773 34.755 3.24027 34.921 4.63401 34.921C9.21046 34.921 11.9875 32.3678 11.9979 28.8493C11.9875 22.8711 3.6043 24.2826 3.6043 20.4528ZM78.3358 37.0487C84.3164 32.9179 93.0116 25.1544 95.9551 20.9302C96.652 19.9338 97.1616 19.363 97.1616 18.3147C97.1616 16.6126 95.1646 15.3567 93.7293 14.4849C90.297 22.5701 82.569 32.6377 78.3358 37.0487ZM83.1202 10.4682C82.5794 8.36129 80.6864 5.98451 78.9182 5.24761C81.2272 11.776 83.2034 21.0755 83.7859 25.6007C84.5556 20.4943 84.1083 14.3292 83.1202 10.4682ZM82.9122 30.7279C87.0518 25.4139 90.3074 19.1658 90.3074 14.6717C90.3074 12.3261 88.6224 10.6862 86.4278 9.4407C86.4694 14.3188 84.774 25.7564 82.9122 30.7279ZM32.0095 23.6599H31.9575C32.1552 22.5805 32.2384 21.335 32.2384 20.5462H29.3365V34.6304H32.3736V28.9012C32.3736 24.677 33.7361 22.7258 36.5444 23.2343L36.69 20.2556C34.0585 20.0065 32.6336 21.7605 32.0095 23.6599ZM65.4073 29.6381V22.8918H69.0996V20.5358H65.3761V15.2322L62.3598 16.0521V20.5358H59.6659V22.8918H62.3598V30.5723C62.3598 33.7171 63.2751 34.8795 66.281 34.8795C67.217 34.8795 68.2676 34.7446 69.0892 34.5682V32.0772C68.5484 32.2225 67.8723 32.3055 67.2483 32.3055C65.8337 32.3055 65.4073 31.7347 65.4073 29.6381ZM100.001 19.7159C92.3044 27.6973 76.9836 39.6642 69.3285 43.8262C79.0326 40.5879 93.1052 33.0424 102.882 26.2961C103.704 25.7357 104.338 25.2063 104.338 24.293C104.349 22.705 101.426 20.5669 100.001 19.7159ZM69.0996 0.826172C73.4265 5.59011 79.8439 15.0453 82.0801 18.4393C80.2704 13.5508 75.7459 3.35864 69.0996 0.826172ZM53.7061 20.2556C51.3243 20.2556 49.6185 21.501 48.7968 23.3174L48.7656 23.2862C48.9112 22.4974 48.9632 21.2727 48.9632 20.5358H46.0613V34.62H49.0984V27.8114C49.0984 25.0091 50.6586 22.7673 52.7908 22.7673C54.4134 22.7673 54.8918 23.7844 54.8918 25.5385V34.6097H57.8977V24.7497C57.9185 22.2691 56.92 20.2556 53.7061 20.2556ZM39.3631 20.5462H42.4002V34.6304H39.3631V20.5462ZM40.9024 14.6406C39.8207 14.6406 38.9366 15.4916 38.9366 16.5399C38.9366 17.5882 39.8207 18.4393 40.9024 18.4393C41.9529 18.4393 42.837 17.5882 42.837 16.5399C42.8266 15.4709 41.9529 14.6406 40.9024 14.6406Z" fill="#E2E2E2"/>
</svg>
