<svg width="139" height="21" viewBox="0 0 139 21" fill="none" xmlns="http://www.w3.org/2000/svg">
<path opacity="0.8" d="M25.2132 0.326172C24.6474 0.326172 24.1782 0.521156 23.8332 0.925056C23.4744 1.32896 23.295 1.91391 23.295 2.70778V17.9306C23.295 18.7245 23.4744 19.3095 23.8332 19.7134C24.192 20.1173 24.6612 20.3122 25.2132 20.3122C25.7928 20.3122 26.2758 20.1173 26.6346 19.7134C26.9934 19.3234 27.1728 18.7245 27.1728 17.9167V2.70778C27.1728 1.91391 26.9934 1.31503 26.6346 0.925056C26.2758 0.535084 25.7928 0.326172 25.2132 0.326172ZM128.782 0.340096C123.331 0.340096 118.888 4.82478 118.888 10.3262C118.888 15.8276 123.317 20.3122 128.782 20.3122C134.233 20.3122 138.677 15.8276 138.677 10.3262C138.677 4.82478 134.247 0.340096 128.782 0.340096ZM128.782 16.2732C125.539 16.2732 122.89 13.5992 122.89 10.3262C122.89 7.05319 125.525 4.37909 128.782 4.37909C132.039 4.37909 134.675 7.05319 134.675 10.3262C134.675 13.6131 132.025 16.2732 128.782 16.2732ZM84.36 0.340096C78.909 0.340096 74.4654 4.82478 74.4654 10.3262C74.4654 15.8276 78.8952 20.3122 84.36 20.3122C89.811 20.3122 94.2546 15.8276 94.2546 10.3262C94.2546 4.82478 89.8248 0.340096 84.36 0.340096ZM84.36 16.2732C81.117 16.2732 78.4674 13.5992 78.4674 10.3262C78.4674 7.05319 81.117 4.37909 84.36 4.37909C87.603 4.37909 90.2526 7.03926 90.2526 10.3262C90.2526 13.6131 87.6168 16.2732 84.36 16.2732ZM106.123 0.340096L105.833 0.326172L100.865 0.340096C100.023 0.340096 99.402 0.535084 99.0294 0.925056C98.6568 1.31503 98.4636 1.94177 98.4636 2.81921V17.8331C98.4636 18.7106 98.6568 19.3373 99.0294 19.7273C99.402 20.1173 100.023 20.3122 100.865 20.3122L105.833 20.3262C105.929 20.3262 106.026 20.3262 106.123 20.3122C109.269 20.2148 112.057 18.627 113.809 16.2315C115.01 14.5741 115.727 12.5407 115.727 10.3401V10.3262C115.727 8.12561 115.01 6.07826 113.809 4.43481C112.057 2.02534 109.269 0.437589 106.123 0.340096ZM111.712 10.3262C111.712 11.5797 111.325 12.7356 110.677 13.6966C109.738 15.0616 108.248 16.0226 106.537 16.2315C106.054 16.2593 105.543 16.2732 104.991 16.2732H102.383V4.40695H104.977C105.529 4.40695 106.04 4.42088 106.523 4.44873C108.234 4.65765 109.738 5.61865 110.663 6.98355C111.325 7.9167 111.712 9.07269 111.712 10.3262ZM68.8626 0.423662C68.145 0.200821 67.3584 0.479374 66.9306 1.13397L60.969 10.3122L55.0074 1.13397C54.5796 0.479374 53.8068 0.200821 53.0754 0.423662C52.3578 0.646504 51.861 1.34288 51.861 2.12283V18.4181C51.861 19.393 52.6338 20.1869 53.5722 20.1869C54.5244 20.1869 55.2834 19.393 55.2834 18.4181V7.93063L59.52 14.4487L59.5338 14.4627V14.4766L59.5476 14.5044C59.5752 14.5462 59.6028 14.588 59.6304 14.6159L59.6718 14.6576L59.7408 14.7412L59.8098 14.8109L59.865 14.8526L59.9754 14.9362L60.003 14.9641C60.0444 14.9919 60.0858 15.0198 60.1134 15.0337L60.141 15.0476C60.1686 15.0616 60.1962 15.0755 60.2376 15.0894C60.417 15.173 60.5964 15.2287 60.7758 15.2426C60.8172 15.2426 60.8448 15.2426 60.8862 15.2565H60.9966C61.038 15.2565 61.0656 15.2565 61.107 15.2426C61.2864 15.2287 61.4658 15.173 61.6452 15.0894C61.6728 15.0755 61.7004 15.0616 61.7418 15.0476L61.7832 15.0337C61.8246 15.0058 61.866 14.9919 61.8936 14.9641L61.9212 14.9362L62.0316 14.8526L62.0868 14.7969L62.1558 14.7273C62.1834 14.6994 62.211 14.6716 62.2248 14.6437L62.2662 14.6019C62.2938 14.5602 62.3214 14.5184 62.349 14.4905L62.3628 14.4627V14.4487L62.3766 14.4348L66.6132 7.9167V18.4042C66.6132 19.3791 67.386 20.173 68.3244 20.173C69.2766 20.173 70.0356 19.3791 70.0356 18.4042V2.1089C70.0908 1.32896 69.594 0.646504 68.8626 0.423662ZM46.0236 16.2036H37.026L47.169 4.26767C47.79 3.4738 47.8176 2.15068 47.2656 1.52394C46.6584 0.855416 45.9546 0.743999 45.2784 0.743999H33.5898C32.6376 0.743999 31.8786 1.37074 31.8786 2.38745C31.8786 3.40417 32.6514 4.23982 33.5898 4.23982H42.27L31.7682 16.5379C31.1748 17.2621 31.23 18.1535 31.506 18.822C31.782 19.4905 32.5272 19.9083 33.2034 19.9083H46.0374C46.9896 19.9083 47.6796 19.0866 47.6796 18.056C47.6658 17.0393 46.9758 16.2036 46.0236 16.2036ZM16.7952 8.7245H12.0756C11.0406 8.7245 10.2126 9.57408 10.2126 10.6187C10.2126 11.6632 11.0406 12.5128 12.0756 12.5128H14.9322V15.3401C14.0904 15.8833 12.6414 16.4404 10.5714 16.4404C6.90056 16.4404 4.89956 13.237 4.89956 10.5212C4.89956 5.744 8.23916 4.1284 10.6404 4.1284C13.2348 4.1284 15.2082 5.40974 15.2634 5.43759C16.119 6.00862 17.2644 5.78578 17.8302 4.90834C18.396 4.03091 18.1752 2.86099 17.3196 2.27603C17.1954 2.19247 14.4216 0.326172 10.6266 0.326172C6.79016 0.326172 0.676758 3.09776 0.676758 10.5212C0.676758 12.8888 1.60136 15.2844 3.22976 17.1089C5.06516 19.1841 7.65956 20.3122 10.5024 20.3122C14.1042 20.3122 16.8504 18.8638 18.0924 17.6382C18.4512 17.276 18.6582 16.7886 18.6582 16.2732V10.6187C18.6582 9.57408 17.8302 8.7245 16.7952 8.7245Z" fill="#E2E2E2"/>
</svg>
