<svg width="119" height="21" viewBox="0 0 119 21" fill="none" xmlns="http://www.w3.org/2000/svg">
<path opacity="0.8" d="M11.3656 11.2065L7.20062 0.326172H0.0151367V20.0445H5.20662V6.92242L10.2329 20.0445H12.4983L17.4774 6.92242V20.0445H22.5509V0.326172H15.4952L11.3656 11.2065ZM30.7511 5.33791C28.5565 5.33791 26.0905 5.98345 24.2499 7.55622L25.9489 10.7135C27.1052 9.73932 28.5093 9.17593 29.9369 9.17593C31.7776 9.17593 32.8277 10.0327 32.8277 11.2769V12.6971C32.0017 11.629 30.3027 11.0069 28.4031 11.0069C26.2085 11.0069 23.483 12.1689 23.483 15.6196C23.483 18.8121 26.1967 20.3262 28.3913 20.3262C30.2319 20.3262 32.0017 19.6102 32.8277 18.5539V20.0445H37.4292V11.0421C37.4174 6.60551 34.1963 5.33791 30.7511 5.33791ZM32.8159 16.3003C32.3439 16.9811 31.3056 17.3332 30.2909 17.3332C29.0992 17.3332 28.0137 16.805 28.0137 15.6783C28.0137 14.5515 29.0874 14.0234 30.2791 14.0234C31.2938 14.0234 32.3439 14.352 32.8159 15.0327V16.3003ZM42.7151 9.85669C42.7151 9.29331 43.423 8.88251 44.4967 8.88251C46.2193 8.88251 47.8594 9.62195 48.7207 10.4435L50.4669 7.21584C48.9212 6.08908 46.9037 5.32617 44.4613 5.32617C40.5087 5.32617 38.3141 7.50927 38.3141 10.0327C38.3141 15.8309 46.6559 13.9999 46.6559 15.7604C46.6559 16.3825 46.0895 16.7698 44.7209 16.7698C43.0218 16.7698 40.7329 15.7957 39.671 14.845L37.7714 18.0961C39.2816 19.4576 41.9363 20.3144 44.5203 20.3144C48.6263 20.3144 51.0214 18.3661 51.0214 15.6431C51.0332 9.798 42.7151 11.4177 42.7151 9.85669ZM61.1212 5.33791C58.7143 5.33791 57.1214 6.42946 56.1775 7.43885V0.326172H51.576V20.0445H56.1775V10.7487C56.7675 10.1032 57.5698 9.36373 58.903 9.36373C60.3543 9.36373 61.251 9.92711 61.251 11.6642V20.0445H65.8526V9.798C65.8526 7.1689 64.3895 5.33791 61.1212 5.33791ZM73.7696 5.33791C71.575 5.33791 69.1444 5.98345 67.3038 7.55622L69.0146 10.7135C70.1709 9.73932 71.516 9.17593 72.9436 9.17593C74.7843 9.17593 75.7754 10.0327 75.7754 11.2769V12.6971C75.0674 11.629 73.3212 11.0069 71.4216 11.0069C69.227 11.0069 66.5369 12.1689 66.5369 15.6196C66.5369 18.8121 69.2034 20.3262 71.398 20.3262C73.2386 20.3262 75.0792 19.6102 75.7872 18.5539V20.0445H80.3887V11.0421C80.3651 6.60551 77.2148 5.33791 73.7696 5.33791ZM75.7636 16.3003C75.4096 16.9811 74.3123 17.3332 73.3094 17.3332C72.1177 17.3332 71.0676 16.805 71.0676 15.6783C71.0676 14.5515 72.0941 14.0234 73.2858 14.0234C74.3005 14.0234 75.4096 14.352 75.7636 15.0327V16.3003ZM90.9015 5.33791C89.3204 5.33791 87.6804 5.95997 86.6185 7.38016V0.33791H82.0169V20.0562H86.6185V18.3191C87.6804 19.6806 89.2968 20.3262 90.9015 20.3262C94.4411 20.3262 97.2256 17.6619 97.2256 12.8144C97.2256 8.14307 94.5001 5.33791 90.9015 5.33791ZM89.3912 16.3003C88.4119 16.3003 87.2084 15.7957 86.6185 15.0327V10.6548C87.2084 9.8919 88.4119 9.35199 89.3912 9.35199C91.2082 9.35199 92.5651 10.6783 92.5651 12.8144C92.5651 14.9623 91.1964 16.3003 89.3912 16.3003ZM97.8274 0.326172H102.429V20.0445H97.8274V0.326172ZM118.003 13.2839C118.003 8.4365 114.9 5.32617 110.653 5.32617C106.169 5.32617 103.042 8.67124 103.042 12.8027C103.042 17.4388 106.429 20.3144 110.853 20.3144C113.048 20.3144 115.431 19.6924 116.859 18.4248L114.865 15.4435C114.039 16.2064 112.364 16.7581 111.361 16.7581C109.284 16.7581 108.092 15.5844 107.762 14.528H118.015V13.2839H118.003ZM107.691 11.2417C107.868 10.1853 108.647 9.02335 110.629 9.02335C112.741 9.02335 113.484 10.3027 113.602 11.2417H107.691Z" fill="#E2E2E2"/>
</svg>
