<svg width="127" height="21" viewBox="0 0 127 21" fill="none" xmlns="http://www.w3.org/2000/svg">
<path opacity="0.8" d="M53.5328 8.85482C52.5123 8.32398 50.8241 8.14272 48.3169 8.05209C46.4523 7.98735 45.1042 8.0262 45.1042 6.29125C45.1042 4.65989 46.5279 4.5822 46.7295 4.55631C47.1956 4.49157 48.6823 4.50452 49.098 4.56926C49.5138 4.63399 50.5847 4.95768 50.6603 6.21357L50.6729 6.75736H55.6998V5.51441C55.662 2.19989 53.8478 0.439057 49.3626 0.361373C46.4145 0.309584 45.331 0.2319 43.2774 0.81453C41.312 1.38421 39.7498 3.06736 39.7624 5.88988C39.775 8.44051 40.2411 10.8228 42.8617 11.7291C44.0711 12.1434 46.6665 12.2729 47.4602 12.3247C48.6571 12.3894 50.7989 12.247 50.7863 14.1632C50.7863 16.0535 49.4256 16.0018 47.9894 16.0147C46.9563 16.0276 44.8019 16.1312 44.8019 14.228L44.7641 13.5288H39.7246V14.6423C39.7246 15.704 39.6994 19.6788 44.2979 20.132C48.6067 20.5592 51.6556 20.1837 53.117 19.627C55.3092 18.8113 56.1659 16.7786 56.1533 14.215C56.1659 10.8746 55.2714 9.74819 53.5328 8.85482ZM27.8188 0.361373H27.8062C24.0895 0.452004 19.3902 0.322531 18.9745 6.96452C18.9241 7.7802 18.9241 9.03609 18.9241 10.3438C18.9241 11.6514 18.9241 12.9073 18.9745 13.723C19.3776 20.0931 23.8124 20.2355 27.8062 20.3262H27.8188C31.8126 20.2355 36.1213 20.0802 36.5245 13.723C36.5749 12.9073 36.6001 11.6514 36.6001 10.3438C36.6001 9.03609 36.5623 7.7802 36.5245 6.96452C36.1087 0.477899 31.9512 0.452004 27.8188 0.361373ZM31.2456 12.26C31.233 14.3833 30.7795 15.95 27.8188 15.8464H27.8062C24.8455 15.95 24.2659 14.3833 24.2533 12.26C24.2533 11.4831 24.2155 10.8876 24.2155 10.3567C24.2155 9.82588 24.2533 9.2303 24.2533 8.45346C24.2659 6.25241 24.9211 4.75052 27.8062 4.8541H27.8188C30.7795 4.75052 31.233 6.3301 31.2456 8.45346C31.2582 9.2303 31.2834 9.82588 31.2834 10.3567C31.2834 10.8876 31.2582 11.4831 31.2456 12.26ZM0.353516 5.5662H6.17413V19.9636H11.705V5.5662H17.2484V0.749793H0.353516V5.5662ZM80.3807 0.762737H85.6974V20.0025H80.3807V0.762737ZM120.432 0.762737H112.873L107.115 20.0154H112.633L113.654 16.3772H119.777L120.797 20.0931H126.354L120.432 0.762737ZM114.763 12.1176L116.59 5.52736L118.454 12.1176H114.763ZM102.781 9.92946C102.781 9.92946 102.806 9.92945 102.857 9.91651C103.386 9.78703 105.641 9.01019 105.767 6.26536C105.893 3.61115 105.112 0.594422 100.136 0.762737H89.9054V20.0025H99.5812C104.671 20.0025 106.057 18.1899 106.133 14.8236C106.208 12.1176 104.81 10.4215 102.781 9.92946ZM95.2346 5.0742H98.4599C100.06 5.0742 100.375 5.65683 100.375 6.73146C100.375 7.87083 99.7702 8.33693 98.6993 8.33693H95.2346V5.0742ZM98.7245 15.6263H95.2346V12.0658H99.0772C100.123 12.0658 100.652 12.5319 100.652 13.736C100.652 15.199 99.871 15.6133 98.7245 15.6263ZM70.8813 7.83198H64.7961V0.749793H59.4794V20.0025H64.7961V12.5966H70.8813V19.9895H76.1979V0.749793H70.8813V7.83198Z" fill="#E2E2E2"/>
</svg>
