<svg width="135" height="21" viewBox="0 0 135 21" fill="none" xmlns="http://www.w3.org/2000/svg">
<path opacity="0.8" d="M76.8978 6.30953C68.898 6.30953 63.4978 8.93671 62.064 13.5308C61.5548 15.1677 61.729 16.5569 62.5866 17.6298C64.0204 19.4041 67.2766 20.3257 72.047 20.3257C80.0468 20.3257 85.447 17.6985 86.8808 13.1182C87.39 11.4676 87.2292 10.0921 86.3716 9.03299C84.9378 7.24486 81.6548 6.30953 76.8978 6.30953ZM77.7018 13.5308C76.7236 16.6532 75.4908 17.8774 73.2798 17.8774C72.315 17.8774 71.6316 17.616 71.2162 17.0796C70.5998 16.3231 70.5998 15.1264 71.243 13.1182C72.2346 9.99583 73.4674 8.77165 75.665 8.77165C76.6432 8.77165 77.3132 9.03299 77.742 9.55567C78.345 10.3122 78.3316 11.4951 77.7018 13.5308ZM133.888 9.01924C132.468 7.24486 129.185 6.30953 124.428 6.30953C116.428 6.30953 111.014 8.93671 109.58 13.5308C109.058 15.1814 109.245 16.5569 110.103 17.6298C111.523 19.4041 114.793 20.3257 119.55 20.3257C127.55 20.3257 132.963 17.6985 134.397 13.1182C134.92 11.4538 134.746 10.0784 133.888 9.01924ZM125.232 13.5308C124.253 16.6532 123.021 17.8774 120.81 17.8774C119.845 17.8774 119.161 17.616 118.733 17.0796C118.13 16.3231 118.13 15.1264 118.759 13.1182C119.738 9.99583 120.984 8.77165 123.181 8.77165C124.146 8.77165 124.83 9.03299 125.258 9.55567C125.875 10.3122 125.861 11.4951 125.232 13.5308ZM6.8157 0.326172C6.7219 0.656288 0.879495 19.3216 0.691895 19.8856H9.4019C9.4957 19.583 15.3515 0.890121 15.5257 0.326172H6.8157ZM104.019 6.74969C103.872 6.94225 97.0514 15.9654 97.0514 15.9654C97.0514 15.9654 95.9392 7.13482 95.899 6.74969H87.8992C87.9662 7.24486 89.534 19.5004 89.5742 19.8856H102.599C102.746 19.693 111.992 7.43743 112.502 6.74969H104.019ZM24.2089 17.7948C22.8287 17.7261 22.0247 17.6023 21.2743 17.0658C20.7115 16.6669 20.8723 15.9517 20.8723 15.9517C20.8723 15.9517 36.1885 12.5817 36.4699 12.513C36.5771 12.2654 36.7245 11.7427 36.7245 11.11C36.7245 10.1334 36.4565 9.32184 35.9339 8.66161C34.6743 7.09356 31.8603 6.30953 27.5723 6.30953C19.8405 6.30953 14.6011 8.90919 13.1807 13.4345C12.5911 15.319 12.7385 16.8045 13.6095 17.9049C15.3515 20.0506 19.5591 20.3395 21.9175 20.3257C28.1217 20.2845 31.2707 19.2804 31.8469 19.0878C31.9005 18.9227 33.2137 16.103 33.4415 15.4428C32.1417 15.9792 27.5723 17.9461 24.2089 17.7948ZM22.1855 11.0962C22.7081 9.41812 24.3027 8.41402 26.4333 8.41402C27.9073 8.41402 28.6309 8.92295 28.9793 9.36311C29.2607 9.70698 29.5287 10.3122 29.3545 11.1375L21.1269 14.9476L22.1855 11.0962ZM61.3806 8.37276C60.255 7.02478 56.771 6.33704 51.1161 6.33704C46.9353 6.33704 42.9019 6.83222 39.8467 7.36865C39.8065 7.47869 35.7597 19.7068 35.6927 19.9268H44.4697C44.5233 19.7618 48.1547 8.82666 48.1547 8.82666C51.2501 8.59283 52.1479 8.93671 52.5499 9.41813C52.7777 9.70698 52.952 10.0508 52.8313 10.4635L49.7225 19.9268H58.4996L61.8228 9.80326C61.8898 9.2118 61.7156 8.77165 61.3806 8.37276Z" fill="#E2E2E2"/>
</svg>
