<svg width="129" height="29" viewBox="0 0 129 29" fill="none" xmlns="http://www.w3.org/2000/svg">
<path d="M44.9247 10.8676C44.4346 11.3835 44.0993 12.0154 43.6221 12.5442C43.6737 11.4996 43.6737 10.4549 43.6737 9.41027H38.2055V28.0075H43.9446V19.1216C43.9317 17.6127 44.4991 15.9877 45.7759 15.0978C46.9753 14.2466 48.5229 14.1821 49.9287 14.3498V9.44896C48.1618 8.95888 46.1628 9.52634 44.9247 10.8676ZM38.1926 9.41027H38.2055V9.39737L38.1926 9.41027ZM36.89 20.2694C36.9029 17.5482 36.4515 14.6722 34.8265 12.4152C32.1826 8.59777 26.5209 7.83685 22.6132 10.0551V10.0293C20.0725 11.4222 18.383 14.1047 18.0219 16.942C17.6737 19.5343 18.0735 22.32 19.5824 24.5125C20.9624 26.576 23.258 27.9559 25.6955 28.3557C28.0169 28.7427 30.506 28.5234 32.5953 27.3756C34.5428 26.3825 36.0646 24.5899 36.6449 22.4748C34.8007 22.4232 32.9564 22.4103 31.1251 22.4748C30.2094 24.5899 27.3334 24.8865 25.5278 23.829C24.2511 23.1067 23.6578 21.6494 23.4515 20.2694C27.9267 20.2694 32.4148 20.321 36.89 20.2694ZM23.4772 16.6067C23.761 15.2912 24.3929 13.9113 25.6697 13.3051C26.9981 12.7248 28.7392 12.7635 29.8354 13.8081C30.6221 14.5303 30.9703 15.5879 31.138 16.6067H23.4772ZM13.2758 9.41027C11.999 13.3825 10.9415 17.445 9.56154 21.3786C8.42662 17.3676 7.14983 13.3954 5.96332 9.39737H0.0307617C2.3264 15.5621 4.33831 21.817 6.58237 27.9946C8.56848 27.943 10.5417 27.9946 12.5278 27.9946C14.6816 21.7912 16.8225 15.5879 19.0149 9.39737C17.1062 9.41027 15.1846 9.35868 13.2758 9.41027ZM73.5042 14.5948C73.7492 14.2853 74.0716 14.0144 74.2393 13.6533L74.2909 9.39737H58.7501V9.42317C58.7501 10.9192 58.6986 12.4281 58.7501 13.9242C61.6133 13.8726 64.4893 13.95 67.3524 13.8726C67.5329 14.0789 67.1976 14.2337 67.1073 14.3885C64.2958 17.4837 61.5101 20.5918 58.7373 23.7129V28.0204C64.0508 27.9688 69.3643 27.9688 74.6778 28.0204V23.5323L65.5339 23.4807C68.2293 20.5532 70.8345 17.5353 73.5042 14.5948ZM51.4376 9.42317L51.4505 9.44896V28.0462H57.2025C57.2025 21.8428 57.1509 15.6395 57.2025 9.43606C55.2809 9.42317 53.3593 9.37158 51.4376 9.42317ZM126.033 0.0858427C123.789 5.12851 121.377 10.1067 119.043 15.1107C118.282 13.1633 117.302 11.3061 116.464 9.39737C115.496 9.34578 114.529 9.39737 113.575 9.39737C114.968 12.5055 116.515 15.5621 117.856 18.696H120.268C123.183 12.4797 126.033 6.22475 128.999 0.0342561C128.006 0.0342561 127.026 0.0213584 126.033 0.0858427ZM113.214 13.0214C112.672 11.4222 111.498 10.0422 109.938 9.37158C107.745 8.4688 105.037 8.63646 103.141 10.1196V10.0938C102.432 10.5968 101.955 11.319 101.374 11.9509C101.374 11.0998 101.374 10.2357 101.426 9.38448H95.8931V27.9946C97.776 27.9946 99.659 27.943 101.542 27.9946V17.6772C101.516 16.5293 101.89 15.317 102.716 14.4916C103.76 13.447 105.553 13.2922 106.765 14.1176C107.578 14.7109 107.939 15.7555 107.939 16.7228V27.9817C109.847 27.9817 111.756 28.0333 113.665 27.9817V18.1543C113.652 16.4391 113.833 14.6593 113.214 13.0214ZM51.4634 2.7426H51.5021L51.4505 7.84975H57.2025C57.2025 6.14736 57.1509 4.44498 57.2025 2.7426H51.4634ZM91.534 11.319C89.1738 9.17813 85.7691 8.53328 82.6867 9.08785C79.6044 9.60372 76.8315 11.7446 75.6837 14.6722C74.9099 16.3746 74.8325 18.2962 74.9744 20.1276C75.3226 23.3131 77.3216 26.318 80.2621 27.6464C84.0667 29.3875 89.0449 28.82 91.9982 25.7248C95.7512 21.8686 95.5707 14.9043 91.534 11.319ZM87.6778 23.068C86.2978 24.8091 83.2542 24.8607 81.8742 23.068C80.5845 21.4172 80.5587 19.1861 80.7393 17.2C80.9843 15.6266 81.7195 13.8597 83.3445 13.2922V13.318C84.5181 12.8924 85.9109 12.9956 86.9556 13.7178C88.2711 14.6593 88.7998 16.3488 88.8901 17.8964C88.9933 19.6891 88.8385 21.6365 87.6778 23.068Z" fill="#E2E2E2"/>
</svg>
